<mxfile host="app.diagrams.net" modified="2022-12-26T15:14:35.844Z" agent="5.0 (Windows NT 10.0; Win64; x64) AppleWebKit/537.36 (KHTML, like Gecko) Chrome/108.0.0.0 Safari/537.36" etag="8bsvL09AmvInGR5QGf4x" version="20.7.4" type="github">
  <diagram id="6QBFJKfGfvPhzsfbULed" name="Страница 1">
    <mxGraphModel dx="1050" dy="590" grid="1" gridSize="10" guides="1" tooltips="1" connect="1" arrows="1" fold="1" page="1" pageScale="1" pageWidth="4681" pageHeight="3300" math="0" shadow="0">
      <root>
        <mxCell id="0" />
        <mxCell id="1" parent="0" />
        <mxCell id="TJoNifK3SdjGcgdbSncx-8" style="edgeStyle=orthogonalEdgeStyle;rounded=0;orthogonalLoop=1;jettySize=auto;html=1;entryX=0;entryY=0.5;entryDx=0;entryDy=0;fontFamily=Times New Roman;fontSize=20;" parent="1" source="TJoNifK3SdjGcgdbSncx-2" target="TJoNifK3SdjGcgdbSncx-7" edge="1">
          <mxGeometry relative="1" as="geometry" />
        </mxCell>
        <mxCell id="TJoNifK3SdjGcgdbSncx-2" value="Подбор квартиры" style="rounded=0;whiteSpace=wrap;html=1;fontSize=20;fontFamily=Times New Roman;" parent="1" vertex="1">
          <mxGeometry x="580" y="260" width="120" height="60" as="geometry" />
        </mxCell>
        <mxCell id="TJoNifK3SdjGcgdbSncx-3" value="" style="endArrow=classic;html=1;rounded=0;fontFamily=Times New Roman;fontSize=20;" parent="1" edge="1">
          <mxGeometry width="50" height="50" relative="1" as="geometry">
            <mxPoint x="400" y="280" as="sourcePoint" />
            <mxPoint x="580" y="280" as="targetPoint" />
          </mxGeometry>
        </mxCell>
        <mxCell id="TJoNifK3SdjGcgdbSncx-4" value="Заказ от&lt;br&gt;клиента" style="text;html=1;align=center;verticalAlign=middle;resizable=0;points=[];autosize=1;strokeColor=none;fillColor=none;fontSize=20;fontFamily=Times New Roman;" parent="1" vertex="1">
          <mxGeometry x="435" y="220" width="90" height="60" as="geometry" />
        </mxCell>
        <mxCell id="TJoNifK3SdjGcgdbSncx-5" value="" style="endArrow=classic;html=1;rounded=0;fontFamily=Times New Roman;fontSize=20;entryX=-0.006;entryY=0.829;entryDx=0;entryDy=0;entryPerimeter=0;" parent="1" target="TJoNifK3SdjGcgdbSncx-2" edge="1">
          <mxGeometry width="50" height="50" relative="1" as="geometry">
            <mxPoint x="400" y="310" as="sourcePoint" />
            <mxPoint x="620" y="280" as="targetPoint" />
          </mxGeometry>
        </mxCell>
        <mxCell id="TJoNifK3SdjGcgdbSncx-6" value="Недвижимость" style="text;html=1;align=center;verticalAlign=middle;resizable=0;points=[];autosize=1;strokeColor=none;fillColor=none;fontSize=20;fontFamily=Times New Roman;" parent="1" vertex="1">
          <mxGeometry x="405" y="310" width="150" height="40" as="geometry" />
        </mxCell>
        <mxCell id="TJoNifK3SdjGcgdbSncx-18" style="edgeStyle=orthogonalEdgeStyle;rounded=0;orthogonalLoop=1;jettySize=auto;html=1;entryX=0;entryY=0.5;entryDx=0;entryDy=0;fontFamily=Times New Roman;fontSize=20;" parent="1" source="TJoNifK3SdjGcgdbSncx-7" target="TJoNifK3SdjGcgdbSncx-17" edge="1">
          <mxGeometry relative="1" as="geometry" />
        </mxCell>
        <mxCell id="TJoNifK3SdjGcgdbSncx-7" value="Заключение договора" style="rounded=0;whiteSpace=wrap;html=1;fontFamily=Times New Roman;fontSize=20;" parent="1" vertex="1">
          <mxGeometry x="800" y="340" width="120" height="60" as="geometry" />
        </mxCell>
        <mxCell id="TJoNifK3SdjGcgdbSncx-9" value="Выбранная &lt;br&gt;недвижимость &lt;br&gt;клиентом" style="text;html=1;align=center;verticalAlign=middle;resizable=0;points=[];autosize=1;strokeColor=none;fillColor=none;fontSize=20;fontFamily=Times New Roman;" parent="1" vertex="1">
          <mxGeometry x="670" y="205" width="150" height="90" as="geometry" />
        </mxCell>
        <mxCell id="TJoNifK3SdjGcgdbSncx-11" value="" style="endArrow=classic;html=1;rounded=1;fontFamily=Times New Roman;fontSize=20;entryX=0.663;entryY=0.023;entryDx=0;entryDy=0;entryPerimeter=0;exitX=0.5;exitY=0;exitDx=0;exitDy=0;startArrow=classic;startFill=1;" parent="1" source="TJoNifK3SdjGcgdbSncx-26" target="TJoNifK3SdjGcgdbSncx-7" edge="1">
          <mxGeometry width="50" height="50" relative="1" as="geometry">
            <mxPoint x="880" y="200" as="sourcePoint" />
            <mxPoint x="870" y="330" as="targetPoint" />
            <Array as="points">
              <mxPoint x="1550" y="270" />
              <mxPoint x="880" y="270" />
            </Array>
          </mxGeometry>
        </mxCell>
        <mxCell id="TJoNifK3SdjGcgdbSncx-12" value="Гражданский кодекс" style="text;html=1;align=center;verticalAlign=middle;resizable=0;points=[];autosize=1;strokeColor=none;fillColor=none;fontSize=20;fontFamily=Times New Roman;" parent="1" vertex="1">
          <mxGeometry x="1140" y="230" width="200" height="40" as="geometry" />
        </mxCell>
        <mxCell id="TJoNifK3SdjGcgdbSncx-15" value="" style="endArrow=classic;html=1;rounded=0;fontFamily=Times New Roman;fontSize=20;entryX=0.75;entryY=1;entryDx=0;entryDy=0;" parent="1" target="TJoNifK3SdjGcgdbSncx-7" edge="1">
          <mxGeometry width="50" height="50" relative="1" as="geometry">
            <mxPoint x="890" y="540" as="sourcePoint" />
            <mxPoint x="840" y="380" as="targetPoint" />
          </mxGeometry>
        </mxCell>
        <mxCell id="TJoNifK3SdjGcgdbSncx-16" value="Сотрудники &lt;br&gt;агентства" style="text;html=1;align=center;verticalAlign=middle;resizable=0;points=[];autosize=1;strokeColor=none;fillColor=none;fontSize=20;fontFamily=Times New Roman;" parent="1" vertex="1">
          <mxGeometry x="830" y="530" width="130" height="60" as="geometry" />
        </mxCell>
        <mxCell id="TJoNifK3SdjGcgdbSncx-25" style="edgeStyle=orthogonalEdgeStyle;rounded=0;orthogonalLoop=1;jettySize=auto;html=1;entryX=0;entryY=0.5;entryDx=0;entryDy=0;fontFamily=Times New Roman;fontSize=20;" parent="1" source="TJoNifK3SdjGcgdbSncx-17" target="TJoNifK3SdjGcgdbSncx-24" edge="1">
          <mxGeometry relative="1" as="geometry" />
        </mxCell>
        <mxCell id="TJoNifK3SdjGcgdbSncx-17" value="Исполнение договора" style="rounded=0;whiteSpace=wrap;html=1;fontFamily=Times New Roman;fontSize=20;" parent="1" vertex="1">
          <mxGeometry x="1030" y="400" width="120" height="60" as="geometry" />
        </mxCell>
        <mxCell id="TJoNifK3SdjGcgdbSncx-22" value="Договор &lt;br&gt;купли-&lt;br&gt;продажи" style="text;html=1;align=center;verticalAlign=middle;resizable=0;points=[];autosize=1;strokeColor=none;fillColor=none;fontSize=20;fontFamily=Times New Roman;" parent="1" vertex="1">
          <mxGeometry x="1140" y="350" width="100" height="90" as="geometry" />
        </mxCell>
        <mxCell id="TJoNifK3SdjGcgdbSncx-27" style="edgeStyle=orthogonalEdgeStyle;rounded=0;orthogonalLoop=1;jettySize=auto;html=1;entryX=0;entryY=0.5;entryDx=0;entryDy=0;fontFamily=Times New Roman;fontSize=20;" parent="1" source="TJoNifK3SdjGcgdbSncx-24" target="TJoNifK3SdjGcgdbSncx-26" edge="1">
          <mxGeometry relative="1" as="geometry" />
        </mxCell>
        <mxCell id="TJoNifK3SdjGcgdbSncx-24" value="Оплата&lt;br&gt;недвижимости" style="rounded=0;whiteSpace=wrap;html=1;fontFamily=Times New Roman;fontSize=20;" parent="1" vertex="1">
          <mxGeometry x="1240" y="450" width="150" height="70" as="geometry" />
        </mxCell>
        <mxCell id="TJoNifK3SdjGcgdbSncx-26" value="Завершение договора" style="rounded=0;whiteSpace=wrap;html=1;fontFamily=Times New Roman;fontSize=20;" parent="1" vertex="1">
          <mxGeometry x="1490" y="510" width="120" height="60" as="geometry" />
        </mxCell>
        <mxCell id="TJoNifK3SdjGcgdbSncx-33" value="" style="endArrow=classic;html=1;rounded=0;fontFamily=Times New Roman;fontSize=20;entryX=0.75;entryY=1;entryDx=0;entryDy=0;" parent="1" target="TJoNifK3SdjGcgdbSncx-26" edge="1">
          <mxGeometry width="50" height="50" relative="1" as="geometry">
            <mxPoint x="1580" y="660" as="sourcePoint" />
            <mxPoint x="1180" y="570" as="targetPoint" />
          </mxGeometry>
        </mxCell>
        <mxCell id="TJoNifK3SdjGcgdbSncx-34" value="Бухгалтерия" style="text;html=1;align=center;verticalAlign=middle;resizable=0;points=[];autosize=1;strokeColor=none;fillColor=none;fontSize=20;fontFamily=Times New Roman;" parent="1" vertex="1">
          <mxGeometry x="1520" y="660" width="130" height="40" as="geometry" />
        </mxCell>
        <mxCell id="TJoNifK3SdjGcgdbSncx-35" value="" style="endArrow=classic;html=1;rounded=0;fontFamily=Times New Roman;fontSize=20;exitX=1;exitY=0.5;exitDx=0;exitDy=0;" parent="1" source="TJoNifK3SdjGcgdbSncx-26" edge="1">
          <mxGeometry width="50" height="50" relative="1" as="geometry">
            <mxPoint x="1440" y="640" as="sourcePoint" />
            <mxPoint x="1710" y="540" as="targetPoint" />
          </mxGeometry>
        </mxCell>
        <mxCell id="TJoNifK3SdjGcgdbSncx-36" value="Обслуженный &lt;br&gt;клиент" style="text;html=1;align=center;verticalAlign=middle;resizable=0;points=[];autosize=1;strokeColor=none;fillColor=none;fontSize=20;fontFamily=Times New Roman;" parent="1" vertex="1">
          <mxGeometry x="1600" y="480" width="140" height="60" as="geometry" />
        </mxCell>
        <mxCell id="TJoNifK3SdjGcgdbSncx-37" value="" style="endArrow=classic;html=1;rounded=1;fontFamily=Times New Roman;fontSize=20;" parent="1" edge="1">
          <mxGeometry width="50" height="50" relative="1" as="geometry">
            <mxPoint x="1080" y="270" as="sourcePoint" />
            <mxPoint x="1080" y="400" as="targetPoint" />
          </mxGeometry>
        </mxCell>
        <mxCell id="TJoNifK3SdjGcgdbSncx-38" value="" style="endArrow=classic;html=1;rounded=1;fontFamily=Times New Roman;fontSize=20;entryX=0.533;entryY=0.006;entryDx=0;entryDy=0;entryPerimeter=0;" parent="1" target="TJoNifK3SdjGcgdbSncx-24" edge="1">
          <mxGeometry width="50" height="50" relative="1" as="geometry">
            <mxPoint x="1320" y="270" as="sourcePoint" />
            <mxPoint x="1260" y="360" as="targetPoint" />
          </mxGeometry>
        </mxCell>
        <mxCell id="TJoNifK3SdjGcgdbSncx-47" value="Квитанция об &lt;br&gt;оплате" style="text;html=1;align=center;verticalAlign=middle;resizable=0;points=[];autosize=1;strokeColor=none;fillColor=none;fontSize=20;fontFamily=Times New Roman;" parent="1" vertex="1">
          <mxGeometry x="1380" y="430" width="140" height="60" as="geometry" />
        </mxCell>
        <mxCell id="TJoNifK3SdjGcgdbSncx-48" value="Договор об&lt;br&gt;предоставлении&amp;nbsp;&lt;br&gt;услуг агентства" style="text;html=1;align=center;verticalAlign=middle;resizable=0;points=[];autosize=1;strokeColor=none;fillColor=none;fontSize=20;fontFamily=Times New Roman;" parent="1" vertex="1">
          <mxGeometry x="910" y="285" width="170" height="90" as="geometry" />
        </mxCell>
        <mxCell id="TJoNifK3SdjGcgdbSncx-51" value="" style="endArrow=classic;html=1;rounded=0;fontFamily=Times New Roman;fontSize=20;entryX=0.5;entryY=0;entryDx=0;entryDy=0;" parent="1" target="TJoNifK3SdjGcgdbSncx-2" edge="1">
          <mxGeometry width="50" height="50" relative="1" as="geometry">
            <mxPoint x="640" y="170" as="sourcePoint" />
            <mxPoint x="1160" y="440" as="targetPoint" />
          </mxGeometry>
        </mxCell>
        <mxCell id="TJoNifK3SdjGcgdbSncx-52" value="Критерии&lt;br&gt;клиента" style="text;html=1;align=center;verticalAlign=middle;resizable=0;points=[];autosize=1;strokeColor=none;fillColor=none;fontSize=20;fontFamily=Times New Roman;" parent="1" vertex="1">
          <mxGeometry x="585" y="110" width="110" height="60" as="geometry" />
        </mxCell>
        <mxCell id="TJoNifK3SdjGcgdbSncx-53" value="" style="endArrow=classic;html=1;rounded=1;fontFamily=Times New Roman;fontSize=20;entryX=0.75;entryY=1;entryDx=0;entryDy=0;startArrow=classic;startFill=1;" parent="1" target="TJoNifK3SdjGcgdbSncx-2" edge="1">
          <mxGeometry width="50" height="50" relative="1" as="geometry">
            <mxPoint x="1510" y="570" as="sourcePoint" />
            <mxPoint x="1210" y="460" as="targetPoint" />
            <Array as="points">
              <mxPoint x="1510" y="620" />
              <mxPoint x="670" y="620" />
            </Array>
          </mxGeometry>
        </mxCell>
        <mxCell id="TJoNifK3SdjGcgdbSncx-54" value="Клиент" style="text;html=1;align=center;verticalAlign=middle;resizable=0;points=[];autosize=1;strokeColor=none;fillColor=none;fontSize=20;fontFamily=Times New Roman;" parent="1" vertex="1">
          <mxGeometry x="960" y="610" width="90" height="40" as="geometry" />
        </mxCell>
        <mxCell id="TJoNifK3SdjGcgdbSncx-55" value="" style="endArrow=classic;html=1;rounded=1;fontFamily=Times New Roman;fontSize=20;entryX=0.25;entryY=1;entryDx=0;entryDy=0;startArrow=classic;startFill=1;" parent="1" target="TJoNifK3SdjGcgdbSncx-2" edge="1">
          <mxGeometry width="50" height="50" relative="1" as="geometry">
            <mxPoint x="1530" y="570" as="sourcePoint" />
            <mxPoint x="1060" y="490" as="targetPoint" />
            <Array as="points">
              <mxPoint x="1530" y="660" />
              <mxPoint x="1353" y="660" />
              <mxPoint x="610" y="660" />
            </Array>
          </mxGeometry>
        </mxCell>
        <mxCell id="TJoNifK3SdjGcgdbSncx-56" value="Агент" style="text;html=1;align=center;verticalAlign=middle;resizable=0;points=[];autosize=1;strokeColor=none;fillColor=none;fontSize=20;fontFamily=Times New Roman;" parent="1" vertex="1">
          <mxGeometry x="910" y="650" width="70" height="40" as="geometry" />
        </mxCell>
        <mxCell id="TJoNifK3SdjGcgdbSncx-57" value="" style="endArrow=classic;html=1;rounded=1;fontFamily=Times New Roman;fontSize=20;entryX=0.333;entryY=1.007;entryDx=0;entryDy=0;entryPerimeter=0;" parent="1" target="TJoNifK3SdjGcgdbSncx-7" edge="1">
          <mxGeometry width="50" height="50" relative="1" as="geometry">
            <mxPoint x="840" y="660" as="sourcePoint" />
            <mxPoint x="1060" y="490" as="targetPoint" />
          </mxGeometry>
        </mxCell>
        <mxCell id="TJoNifK3SdjGcgdbSncx-58" value="" style="endArrow=classic;html=1;rounded=1;fontFamily=Times New Roman;fontSize=20;entryX=0.75;entryY=1;entryDx=0;entryDy=0;" parent="1" target="TJoNifK3SdjGcgdbSncx-17" edge="1">
          <mxGeometry width="50" height="50" relative="1" as="geometry">
            <mxPoint x="1120" y="660" as="sourcePoint" />
            <mxPoint x="1140" y="510" as="targetPoint" />
          </mxGeometry>
        </mxCell>
        <mxCell id="TJoNifK3SdjGcgdbSncx-59" value="" style="endArrow=classic;html=1;rounded=1;fontFamily=Times New Roman;fontSize=20;entryX=0.417;entryY=1.01;entryDx=0;entryDy=0;entryPerimeter=0;" parent="1" target="TJoNifK3SdjGcgdbSncx-17" edge="1">
          <mxGeometry width="50" height="50" relative="1" as="geometry">
            <mxPoint x="1080" y="620" as="sourcePoint" />
            <mxPoint x="1080" y="480" as="targetPoint" />
          </mxGeometry>
        </mxCell>
        <mxCell id="uGJjq6CHK6aIpZQMWzKa-2" value="&lt;font face=&quot;Times New Roman&quot; style=&quot;font-size: 20px;&quot;&gt;Покупка квартиры через агентство&lt;/font&gt;" style="text;html=1;align=center;verticalAlign=middle;resizable=0;points=[];autosize=1;strokeColor=none;fillColor=none;" parent="1" vertex="1">
          <mxGeometry x="890" y="720" width="320" height="40" as="geometry" />
        </mxCell>
        <mxCell id="uGJjq6CHK6aIpZQMWzKa-3" value="" style="endArrow=classic;html=1;rounded=0;fontFamily=Times New Roman;fontSize=20;" parent="1" edge="1">
          <mxGeometry width="50" height="50" relative="1" as="geometry">
            <mxPoint x="810" y="620" as="sourcePoint" />
            <mxPoint x="810" y="400" as="targetPoint" />
          </mxGeometry>
        </mxCell>
        <mxCell id="uGJjq6CHK6aIpZQMWzKa-5" value="" style="endArrow=classic;html=1;rounded=1;fontFamily=Times New Roman;fontSize=20;" parent="1" edge="1">
          <mxGeometry width="50" height="50" relative="1" as="geometry">
            <mxPoint x="1360" y="620" as="sourcePoint" />
            <mxPoint x="1360" y="520" as="targetPoint" />
          </mxGeometry>
        </mxCell>
        <mxCell id="J-ogl4SvQgrz9qunAJMZ-1" value="" style="endArrow=classic;html=1;rounded=1;entryX=0.75;entryY=0;entryDx=0;entryDy=0;exitX=0.75;exitY=0;exitDx=0;exitDy=0;startArrow=classic;startFill=1;" parent="1" source="TJoNifK3SdjGcgdbSncx-17" target="TJoNifK3SdjGcgdbSncx-24" edge="1">
          <mxGeometry width="50" height="50" relative="1" as="geometry">
            <mxPoint x="1350" y="200" as="sourcePoint" />
            <mxPoint x="1210" y="420" as="targetPoint" />
            <Array as="points">
              <mxPoint x="1120" y="200" />
              <mxPoint x="1353" y="200" />
            </Array>
          </mxGeometry>
        </mxCell>
        <mxCell id="J-ogl4SvQgrz9qunAJMZ-2" value="Жилищный&lt;br style=&quot;font-size: 20px;&quot;&gt;кодекс" style="text;html=1;align=center;verticalAlign=middle;resizable=0;points=[];autosize=1;strokeColor=none;fillColor=none;fontSize=20;fontFamily=Times New Roman;" parent="1" vertex="1">
          <mxGeometry x="1180" y="140" width="120" height="60" as="geometry" />
        </mxCell>
      </root>
    </mxGraphModel>
  </diagram>
</mxfile>
